<svg xmlns="http://www.w3.org/2000/svg" xmlns:xlink="http://www.w3.org/1999/xlink" width="40" zoomAndPan="magnify" viewBox="0 0 30 30.000001" height="40" preserveAspectRatio="xMidYMid meet" version="1.2"><defs><clipPath id="ab01d26663"><path d="M 0.484375 0 L 29.515625 0 L 29.515625 29.03125 L 0.484375 29.03125 Z M 0.484375 0 "/></clipPath><clipPath id="76c6400fc7"><path d="M 2.648438 0.96875 L 27.089844 0.96875 L 27.089844 14.46875 L 2.648438 14.46875 Z M 2.648438 0.96875 "/></clipPath><clipPath id="9c64a4efa5"><path d="M 25 4 L 29.515625 4 L 29.515625 12 L 25 12 Z M 25 4 "/></clipPath></defs><g id="c453b72390"><g clip-rule="nonzero" clip-path="url(#ab01d26663)"><path style=" stroke:none;fill-rule:nonzero;fill:#ffffff;fill-opacity:1;" d="M 0.484375 0 L 29.515625 0 L 29.515625 29.03125 L 0.484375 29.03125 Z M 0.484375 0 "/><path style=" stroke:none;fill-rule:nonzero;fill:#473c38;fill-opacity:1;" d="M 0.484375 0 L 29.515625 0 L 29.515625 29.03125 L 0.484375 29.03125 Z M 0.484375 0 "/></g><g clip-rule="nonzero" clip-path="url(#76c6400fc7)"><path style="fill:none;stroke-width:11.291393;stroke-linecap:butt;stroke-linejoin:miter;stroke:#ffffff;stroke-opacity:1;stroke-miterlimit:4;" d="M -0.0105602 0.00209491 L 190.78628 0.00209491 L 190.78628 105.387085 L -0.0105602 105.387085 Z M -0.0105602 0.00209491 " transform="matrix(0.128102,0,0,0.128102,2.64979,0.968482)"/></g><g style="fill:#ffffff;fill-opacity:1;"><g transform="translate(5.542626, 10.485023)"><path style="stroke:none" d="M 1.5 1.140625 C 0.488281 1.054688 -0.015625 0.539062 -0.015625 -0.40625 C -0.015625 -0.976562 0.160156 -1.578125 0.515625 -2.203125 C 0.722656 -2.578125 0.984375 -2.945312 1.296875 -3.3125 C 1.617188 -3.675781 1.96875 -4.003906 2.34375 -4.296875 C 2.726562 -4.585938 3.117188 -4.816406 3.515625 -4.984375 C 3.910156 -5.148438 4.289062 -5.234375 4.65625 -5.234375 C 5.300781 -5.234375 5.625 -4.992188 5.625 -4.515625 C 5.625 -4.203125 5.53125 -3.847656 5.34375 -3.453125 C 5.144531 -3.054688 4.941406 -2.804688 4.734375 -2.703125 C 4.710938 -2.691406 4.691406 -2.6875 4.671875 -2.6875 C 4.648438 -2.6875 4.640625 -2.695312 4.640625 -2.71875 L 4.96875 -3.25 C 5.1875 -3.613281 5.296875 -3.929688 5.296875 -4.203125 C 5.296875 -4.398438 5.242188 -4.585938 5.140625 -4.765625 C 5.035156 -4.941406 4.847656 -5.03125 4.578125 -5.03125 C 4.253906 -5.03125 3.921875 -4.9375 3.578125 -4.75 C 3.234375 -4.570312 2.898438 -4.332031 2.578125 -4.03125 C 2.253906 -3.726562 1.960938 -3.394531 1.703125 -3.03125 C 1.441406 -2.664062 1.234375 -2.304688 1.078125 -1.953125 C 0.734375 -1.203125 0.5625 -0.59375 0.5625 -0.125 C 0.5625 0.570312 0.921875 0.921875 1.640625 0.921875 C 2.316406 0.921875 3.238281 0.484375 4.40625 -0.390625 C 4.675781 -0.597656 5.019531 -0.882812 5.4375 -1.25 C 5.863281 -1.613281 6.363281 -2.054688 6.9375 -2.578125 C 6.863281 -2.578125 6.765625 -2.570312 6.640625 -2.5625 C 6.523438 -2.550781 6.390625 -2.53125 6.234375 -2.5 C 6.160156 -2.488281 6.09375 -2.476562 6.03125 -2.46875 C 5.976562 -2.457031 5.925781 -2.453125 5.875 -2.453125 C 5.75 -2.472656 5.691406 -2.507812 5.703125 -2.5625 C 5.734375 -2.800781 5.859375 -2.921875 6.078125 -2.921875 C 6.285156 -2.890625 6.476562 -2.867188 6.65625 -2.859375 C 6.832031 -2.847656 7.003906 -2.84375 7.171875 -2.84375 C 7.429688 -3.070312 7.769531 -3.398438 8.1875 -3.828125 C 8.613281 -4.253906 9.117188 -4.773438 9.703125 -5.390625 C 10.453125 -6.179688 10.910156 -6.578125 11.078125 -6.578125 C 11.148438 -6.578125 11.1875 -6.507812 11.1875 -6.375 C 11.1875 -6.320312 11.175781 -6.253906 11.15625 -6.171875 C 11.144531 -6.097656 11.128906 -6.007812 11.109375 -5.90625 C 11.035156 -5.65625 10.96875 -5.503906 10.90625 -5.453125 C 10.695312 -5.304688 10.523438 -5.117188 10.390625 -4.890625 C 10.253906 -4.671875 10.117188 -4.421875 9.984375 -4.140625 C 9.847656 -3.859375 9.722656 -3.609375 9.609375 -3.390625 C 9.492188 -3.171875 9.390625 -2.976562 9.296875 -2.8125 L 10.25 -2.828125 C 10.488281 -2.828125 10.609375 -2.8125 10.609375 -2.78125 C 10.609375 -2.769531 10.597656 -2.757812 10.578125 -2.75 C 10.472656 -2.675781 10.003906 -2.613281 9.171875 -2.5625 C 8.554688 -1.375 8.25 -0.5625 8.25 -0.125 C 8.25 0.175781 8.347656 0.328125 8.546875 0.328125 C 8.617188 0.328125 8.707031 0.285156 8.8125 0.203125 C 8.914062 0.109375 8.984375 0.0625 9.015625 0.0625 C 9.015625 0.0507812 9.015625 0.046875 9.015625 0.046875 C 9.023438 0.0546875 9.023438 0.0625 9.015625 0.0625 C 8.984375 0.1875 8.882812 0.296875 8.71875 0.390625 C 8.5625 0.484375 8.394531 0.53125 8.21875 0.53125 C 8.050781 0.53125 7.941406 0.476562 7.890625 0.375 C 7.835938 0.269531 7.8125 0.125 7.8125 -0.0625 C 7.8125 -0.71875 8.0625 -1.554688 8.5625 -2.578125 L 7.390625 -2.5625 C 6.515625 -1.695312 5.632812 -0.941406 4.75 -0.296875 C 3.34375 0.722656 2.257812 1.203125 1.5 1.140625 Z M 8.65625 -2.84375 C 8.738281 -2.988281 8.894531 -3.257812 9.125 -3.65625 C 9.363281 -4.050781 9.679688 -4.566406 10.078125 -5.203125 L 7.5625 -2.84375 Z M 8.65625 -2.84375 "/></g></g><g style="fill:#ffffff;fill-opacity:1;"><g transform="translate(15.563871, 10.485023)"><path style="stroke:none" d="M 2.578125 0.640625 C 1.859375 0.640625 1.296875 0.445312 0.890625 0.0625 C 0.492188 -0.320312 0.296875 -0.820312 0.296875 -1.4375 C 0.296875 -2.007812 0.4375 -2.5625 0.71875 -3.09375 C 1 -3.632812 1.351562 -4.128906 1.78125 -4.578125 C 2.125 -4.941406 2.519531 -5.257812 2.96875 -5.53125 C 3.414062 -5.800781 3.882812 -6.007812 4.375 -6.15625 C 4.875 -6.3125 5.363281 -6.390625 5.84375 -6.390625 C 6.207031 -6.390625 6.539062 -6.335938 6.84375 -6.234375 C 7.144531 -6.128906 7.382812 -5.96875 7.5625 -5.75 C 7.738281 -5.539062 7.828125 -5.257812 7.828125 -4.90625 C 7.828125 -4.601562 7.753906 -4.316406 7.609375 -4.046875 C 7.460938 -3.785156 7.265625 -3.554688 7.015625 -3.359375 C 6.773438 -3.160156 6.503906 -3.003906 6.203125 -2.890625 C 5.910156 -2.785156 5.613281 -2.734375 5.3125 -2.734375 C 4.925781 -2.734375 4.597656 -2.820312 4.328125 -3 C 4.054688 -3.175781 3.921875 -3.40625 3.921875 -3.6875 C 3.921875 -4.039062 4.144531 -4.390625 4.59375 -4.734375 C 4.675781 -4.785156 4.738281 -4.8125 4.78125 -4.8125 C 4.8125 -4.8125 4.828125 -4.800781 4.828125 -4.78125 C 4.828125 -4.707031 4.773438 -4.65625 4.671875 -4.625 C 4.304688 -4.320312 4.125 -4.019531 4.125 -3.71875 C 4.125 -3.507812 4.222656 -3.328125 4.421875 -3.171875 C 4.617188 -3.023438 4.863281 -2.953125 5.15625 -2.953125 C 5.414062 -2.953125 5.675781 -3.007812 5.9375 -3.125 C 6.207031 -3.238281 6.453125 -3.390625 6.671875 -3.578125 C 6.898438 -3.765625 7.082031 -3.976562 7.21875 -4.21875 C 7.351562 -4.457031 7.421875 -4.707031 7.421875 -4.96875 C 7.421875 -5.394531 7.273438 -5.707031 6.984375 -5.90625 C 6.703125 -6.101562 6.335938 -6.203125 5.890625 -6.203125 C 5.378906 -6.203125 4.875 -6.101562 4.375 -5.90625 C 3.882812 -5.71875 3.421875 -5.457031 2.984375 -5.125 C 2.554688 -4.789062 2.175781 -4.410156 1.84375 -3.984375 C 1.15625 -3.117188 0.8125 -2.3125 0.8125 -1.5625 C 0.8125 -1.164062 0.898438 -0.828125 1.078125 -0.546875 C 1.265625 -0.265625 1.519531 -0.0546875 1.84375 0.078125 C 2.175781 0.222656 2.550781 0.296875 2.96875 0.296875 C 3.59375 0.296875 4.195312 0.160156 4.78125 -0.109375 C 5.363281 -0.378906 5.859375 -0.742188 6.265625 -1.203125 C 6.378906 -1.316406 6.460938 -1.375 6.515625 -1.375 C 6.554688 -1.375 6.578125 -1.34375 6.578125 -1.28125 C 6.578125 -1.207031 6.539062 -1.132812 6.46875 -1.0625 C 6.238281 -0.820312 5.96875 -0.597656 5.65625 -0.390625 C 5.351562 -0.191406 5.023438 -0.015625 4.671875 0.140625 C 4.328125 0.296875 3.972656 0.414062 3.609375 0.5 C 3.253906 0.59375 2.910156 0.640625 2.578125 0.640625 Z M 2.578125 0.640625 "/></g></g><path style=" stroke:none;fill-rule:nonzero;fill:#473c38;fill-opacity:1;" d="M 1.675781 4.003906 L 3.972656 4.003906 L 3.972656 11.480469 L 1.675781 11.480469 L 1.675781 4.003906 "/><g style="fill:#ffffff;fill-opacity:1;"><g transform="translate(1.67498, 9.59323)"><path style="stroke:none" d="M 0.34375 0.03125 C 0.269531 0.03125 0.234375 -0.0078125 0.234375 -0.09375 C 0.234375 -0.164062 0.269531 -0.203125 0.34375 -0.203125 C 0.382812 -0.203125 0.425781 -0.195312 0.46875 -0.1875 C 0.519531 -0.1875 0.582031 -0.1875 0.65625 -0.1875 C 0.726562 -0.1875 0.78125 -0.203125 0.8125 -0.234375 C 0.851562 -0.273438 0.875 -0.332031 0.875 -0.40625 L 0.875 -3.328125 C 0.875 -3.398438 0.851562 -3.453125 0.8125 -3.484375 C 0.78125 -3.523438 0.726562 -3.546875 0.65625 -3.546875 C 0.582031 -3.546875 0.519531 -3.539062 0.46875 -3.53125 C 0.425781 -3.53125 0.382812 -3.53125 0.34375 -3.53125 C 0.269531 -3.53125 0.234375 -3.570312 0.234375 -3.65625 C 0.234375 -3.726562 0.269531 -3.765625 0.34375 -3.765625 C 0.394531 -3.765625 0.441406 -3.757812 0.484375 -3.75 C 0.523438 -3.75 0.578125 -3.742188 0.640625 -3.734375 C 0.710938 -3.734375 0.8125 -3.734375 0.9375 -3.734375 L 1.359375 -3.734375 C 1.484375 -3.734375 1.582031 -3.734375 1.65625 -3.734375 C 1.726562 -3.742188 1.785156 -3.75 1.828125 -3.75 C 1.867188 -3.757812 1.910156 -3.765625 1.953125 -3.765625 C 2.023438 -3.765625 2.0625 -3.726562 2.0625 -3.65625 C 2.0625 -3.570312 2.023438 -3.53125 1.953125 -3.53125 C 1.910156 -3.53125 1.867188 -3.53125 1.828125 -3.53125 C 1.785156 -3.539062 1.722656 -3.546875 1.640625 -3.546875 C 1.566406 -3.546875 1.507812 -3.523438 1.46875 -3.484375 C 1.4375 -3.453125 1.421875 -3.398438 1.421875 -3.328125 L 1.421875 -0.40625 C 1.421875 -0.332031 1.4375 -0.273438 1.46875 -0.234375 C 1.507812 -0.203125 1.566406 -0.1875 1.640625 -0.1875 C 1.722656 -0.1875 1.785156 -0.1875 1.828125 -0.1875 C 1.867188 -0.195312 1.910156 -0.203125 1.953125 -0.203125 C 2.023438 -0.203125 2.0625 -0.164062 2.0625 -0.09375 C 2.0625 -0.0078125 2.023438 0.03125 1.953125 0.03125 C 1.910156 0.03125 1.867188 0.0234375 1.828125 0.015625 C 1.785156 0.015625 1.726562 0.0078125 1.65625 0 C 1.582031 0 1.484375 0 1.359375 0 L 0.9375 0 C 0.8125 0 0.710938 0 0.640625 0 C 0.578125 0.0078125 0.523438 0.015625 0.484375 0.015625 C 0.441406 0.0234375 0.394531 0.03125 0.34375 0.03125 Z M 0.34375 0.03125 "/></g></g><g clip-rule="nonzero" clip-path="url(#9c64a4efa5)"><path style=" stroke:none;fill-rule:nonzero;fill:#473c38;fill-opacity:1;" d="M 25.242188 4.003906 L 29.109375 4.003906 L 29.109375 11.480469 L 25.242188 11.480469 L 25.242188 4.003906 "/></g><g style="fill:#ffffff;fill-opacity:1;"><g transform="translate(25.241256, 9.59323)"><path style="stroke:none" d="M 0.34375 0.03125 C 0.269531 0.03125 0.234375 -0.0078125 0.234375 -0.09375 C 0.234375 -0.164062 0.269531 -0.203125 0.34375 -0.203125 C 0.382812 -0.203125 0.425781 -0.195312 0.46875 -0.1875 C 0.519531 -0.1875 0.582031 -0.1875 0.65625 -0.1875 C 0.726562 -0.1875 0.78125 -0.203125 0.8125 -0.234375 C 0.851562 -0.273438 0.875 -0.332031 0.875 -0.40625 L 0.875 -3.328125 C 0.875 -3.398438 0.851562 -3.453125 0.8125 -3.484375 C 0.78125 -3.523438 0.726562 -3.546875 0.65625 -3.546875 C 0.582031 -3.546875 0.519531 -3.539062 0.46875 -3.53125 C 0.425781 -3.53125 0.382812 -3.53125 0.34375 -3.53125 C 0.269531 -3.53125 0.234375 -3.570312 0.234375 -3.65625 C 0.234375 -3.726562 0.269531 -3.765625 0.34375 -3.765625 C 0.394531 -3.765625 0.441406 -3.757812 0.484375 -3.75 C 0.523438 -3.75 0.578125 -3.742188 0.640625 -3.734375 C 0.710938 -3.734375 0.8125 -3.734375 0.9375 -3.734375 L 1.328125 -3.734375 C 1.441406 -3.734375 1.546875 -3.738281 1.640625 -3.75 C 1.734375 -3.757812 1.84375 -3.765625 1.96875 -3.765625 C 2.164062 -3.765625 2.363281 -3.71875 2.5625 -3.625 C 2.757812 -3.53125 2.929688 -3.394531 3.078125 -3.21875 C 3.234375 -3.050781 3.351562 -2.851562 3.4375 -2.625 C 3.53125 -2.394531 3.578125 -2.144531 3.578125 -1.875 C 3.578125 -1.59375 3.53125 -1.335938 3.4375 -1.109375 C 3.351562 -0.878906 3.234375 -0.675781 3.078125 -0.5 C 2.929688 -0.332031 2.757812 -0.203125 2.5625 -0.109375 C 2.375 -0.015625 2.175781 0.03125 1.96875 0.03125 C 1.84375 0.03125 1.734375 0.0234375 1.640625 0.015625 C 1.546875 0.00390625 1.441406 0 1.328125 0 L 0.9375 0 C 0.8125 0 0.710938 0 0.640625 0 C 0.578125 0.0078125 0.523438 0.015625 0.484375 0.015625 C 0.441406 0.0234375 0.394531 0.03125 0.34375 0.03125 Z M 1.75 -0.15625 L 1.953125 -0.15625 C 2.140625 -0.15625 2.296875 -0.203125 2.421875 -0.296875 C 2.546875 -0.390625 2.644531 -0.515625 2.71875 -0.671875 C 2.800781 -0.828125 2.859375 -1.007812 2.890625 -1.21875 C 2.921875 -1.425781 2.9375 -1.644531 2.9375 -1.875 C 2.9375 -2.101562 2.921875 -2.316406 2.890625 -2.515625 C 2.859375 -2.722656 2.800781 -2.90625 2.71875 -3.0625 C 2.644531 -3.21875 2.546875 -3.34375 2.421875 -3.4375 C 2.296875 -3.53125 2.140625 -3.578125 1.953125 -3.578125 L 1.75 -3.578125 C 1.53125 -3.578125 1.421875 -3.46875 1.421875 -3.25 L 1.421875 -0.484375 C 1.421875 -0.265625 1.53125 -0.15625 1.75 -0.15625 Z M 1.75 -0.15625 "/></g></g></g></svg>